# xmcd
#
# Track frame offsets:
#	150
#	17009
#	31821
#	44000
#	68777
#	80425
#	94134
#	111721
#	122554
#	138888
#	146419
#	166429
#
# Disc length: 2448 seconds
#
# Revision: 0
# Processed by: cddbd v1.5.2PL0 Copyright (c) Steve Scherf et al.
# Submitted via: dBpowerAMP V4.0
#
DISCID=a3098e0c
DTITLE=HAYKEL - Ambiance non stop
DYEAR=2007
DGENRE=Rboukh
TTITLE0=illi melouch fi el7oub we narou
TTITLE1=wouistek
TTITLE2=ye ma7souna
TTITLE3=le7meri
TTITLE4=elkirita
TTITLE5=ech bina
TTITLE6=ye leleli
TTITLE7=elbourtou9ala
TTITLE8=ye lela ye lilla
TTITLE9=sal7a
TTITLE10=dour biha ye chibeni
TTITLE11=7ind by mansour
EXTD=album: Jaow tounsi 100%\nwalid
EXTT0=
EXTT1=
EXTT2=
EXTT3=
EXTT4=
EXTT5=
EXTT6=
EXTT7=
EXTT8=
EXTT9=
EXTT10=
EXTT11=
PLAYORDER=
